<?xml version="1.0" encoding="utf-8"?>
<!-- Generator: Adobe Illustrator 21.0.2, SVG Export Plug-In . SVG Version: 6.00 Build 0)  -->
<svg version="1.1" id="Capa_2" xmlns="http://www.w3.org/2000/svg" xmlns:xlink="http://www.w3.org/1999/xlink" x="0px" y="0px"
	 viewBox="0 0 80 80" style="enable-background:new 0 0 80 80;" xml:space="preserve">
<style type="text/css">
	.st0{fill:#0033CC;}
	.st1{fill:#FFFFFF;}
	.st2{fill:none;stroke:#0033CC;stroke-width:1.5;stroke-miterlimit:10;}
</style>
<rect x="-2728.3" y="-200.3" class="st0" width="1920" height="1080"/>
<g>
	<g>
		<path class="st1" d="M-2033.1,299.8h16.2v80.2h-16.2V299.8z"/>
		<path class="st1" d="M-1969.2,299.8h25.5c10,0,24.5,1,34,13.9c5.9,7.4,8.2,16.3,8.2,26.1c0,22.7-11.9,40.2-41.1,40.2h-26.7V299.8z
			 M-1953.1,365.9h11.4c17.3,0,24.1-11.4,24.1-25.8c0-6.3-1.6-13-5.4-18c-3.4-4.3-8.8-8-18.5-8h-11.5V365.9z"/>
		<path class="st1" d="M-1857.3,299.8h45V314h-28.8v18.2h28.3v14.2h-28.3v19.4h28.8v14.2h-45V299.8z"/>
		<path class="st1" d="M-1756,380.1h-17.6l32.5-80.2h14.2l31.8,80.2h-17.7l-5.9-15.7h-31.7L-1756,380.1z M-1734.6,318.9l-11.4,32.5
			h23.1L-1734.6,318.9z"/>
	</g>
	<g>
		<path class="st1" d="M-2136.5,341.9c0.3,6.2,5.7,9.4,10.4,9.4c4.1,0,7.2-2,8.9-5.2h6.1c-1.5,3.4-3.6,6-6.2,7.7
			c-2.6,1.8-5.7,2.6-8.8,2.6c-10.1,0-16.3-8.1-16.3-16.3c0-8.8,6.9-16.4,16.3-16.4c4.4,0,8.4,1.6,11.4,4.5c3.6,3.7,5.2,8.5,4.6,13.7
			H-2136.5z M-2115.9,337.3c-0.3-4.1-4.4-8.7-10.2-8.6c-6,0-9.9,4.4-10.2,8.6H-2115.9z"/>
	</g>
	<rect x="-2142.4" y="301.8" class="st1" width="62.9" height="5.2"/>
	<rect x="-2142.4" y="374.9" class="st1" width="62.9" height="5.2"/>
	<g>
		<path class="st1" d="M-2100.2,323.6h5.9V350h14.8v5.9h-20.7V323.6z"/>
	</g>
	<g>
		<path class="st1" d="M-1661.4,373.5h4.7c0.8,0,1.5-0.1,2.2-0.2c0.7-0.1,1.3-0.4,1.8-0.9c0.5-0.5,0.9-1.1,1.2-2
			c0.3-0.9,0.5-2.1,0.5-3.5v-54.1c0-1.5-0.2-2.7-0.5-3.6c-0.3-0.9-0.7-1.6-1.2-2c-0.5-0.5-1.1-0.8-1.8-0.9c-0.7-0.2-1.4-0.2-2.2-0.2
			h-4.7v-5.9h35.8c10.5,0,18.2,1.8,23.1,5.3c4.9,3.5,7.3,8.6,7.3,15.3c0,2.9-0.4,5.5-1.3,7.8c-0.9,2.3-2,4.3-3.4,6
			c-1.4,1.7-3,3.1-4.9,4.3c-1.8,1.2-3.7,2.1-5.5,2.9l13.2,22.8c0.9,1.6,1.9,3,2.7,4.1c0.9,1.1,1.8,2.1,2.7,2.8
			c0.9,0.7,1.8,1.3,2.7,1.6c0.9,0.3,1.9,0.5,3,0.5h0.4v5.9h-3.6c-3.3,0-6.2-0.1-8.7-0.4c-2.5-0.3-4.6-0.8-6.5-1.5s-3.5-1.8-4.8-3.1
			c-1.4-1.3-2.6-3-3.8-5l-13.2-24.5h-7.4v21.9c0,1.4,0.2,2.6,0.5,3.5c0.3,0.9,0.7,1.6,1.2,2c0.5,0.5,1.1,0.8,1.8,0.9
			c0.7,0.1,1.4,0.2,2.2,0.2h4.8v5.9h-38.3V373.5z M-1633.5,338.5h6.2c2.6,0,4.7-0.3,6.4-1c1.7-0.7,3.1-1.7,4.1-3.1
			c1-1.4,1.8-3.1,2.2-5.1c0.5-2,0.7-4.4,0.7-7.1c0-2.8-0.3-5.2-0.8-7.2s-1.3-3.6-2.4-4.8c-1.1-1.2-2.5-2.2-4.2-2.7
			c-1.7-0.6-3.8-0.8-6.3-0.8h-6V338.5z"/>
		<path class="st1" d="M-1549.4,379.4v-5.9h4.7c0.8,0,1.6-0.1,2.3-0.2c0.7-0.2,1.3-0.5,1.8-1c0.5-0.5,0.9-1.2,1.2-2.2
			c0.3-0.9,0.4-2.2,0.4-3.8v-53c0-1.6-0.1-2.9-0.4-3.8c-0.3-0.9-0.7-1.7-1.2-2.2s-1.1-0.8-1.8-1c-0.7-0.2-1.4-0.2-2.3-0.2h-4.7v-5.9
			h38.3v5.9h-4.7c-0.8,0-1.5,0.1-2.3,0.2c-0.7,0.2-1.3,0.5-1.8,1c-0.5,0.5-0.9,1.2-1.2,2.2c-0.3,0.9-0.4,2.2-0.4,3.8v53
			c0,1.6,0.1,2.9,0.4,3.8c0.3,0.9,0.7,1.7,1.2,2.2c0.5,0.5,1.1,0.8,1.8,1c0.7,0.2,1.5,0.2,2.3,0.2h4.7v5.9H-1549.4z"/>
		<path class="st1" d="M-1393.3,339.6c0,6.1-0.8,11.7-2.5,16.7c-1.6,5-4.1,9.3-7.3,12.9c-3.2,3.6-7.1,6.3-11.8,8.3
			c-4.6,2-10,2.9-16,2.9c-6.3,0-11.9-1-16.6-2.9c-4.7-2-8.6-4.7-11.7-8.3c-3.1-3.6-5.4-7.9-7-12.9c-1.6-5-2.3-10.6-2.3-16.8
			c0-6.1,0.8-11.7,2.3-16.7c1.6-5,3.9-9.3,7-12.8c3.1-3.5,7.1-6.3,11.8-8.2c4.7-1.9,10.3-2.9,16.6-2.9c6,0,11.3,1,16,2.9
			c4.6,1.9,8.6,4.7,11.7,8.2c3.2,3.6,5.6,7.8,7.2,12.9C-1394.1,327.9-1393.3,333.5-1393.3,339.6z M-1449.8,339.6
			c0,5.3,0.3,10.1,1,14.2c0.7,4.2,1.8,7.7,3.3,10.5c1.5,2.9,3.5,5.1,5.9,6.6c2.4,1.5,5.3,2.3,8.8,2.3c3.5,0,6.4-0.8,8.8-2.3
			c2.4-1.5,4.3-3.7,5.8-6.6c1.5-2.9,2.6-6.4,3.2-10.5c0.7-4.2,1-8.9,1-14.2c0-5.3-0.3-10.1-1-14.2c-0.7-4.2-1.7-7.7-3.2-10.5
			c-1.5-2.9-3.4-5.1-5.8-6.6c-2.4-1.5-5.3-2.3-8.7-2.3c-3.5,0-6.4,0.8-8.8,2.3c-2.4,1.5-4.4,3.7-5.9,6.6c-1.5,2.9-2.6,6.4-3.3,10.5
			C-1449.4,329.6-1449.8,334.3-1449.8,339.6z"/>
	</g>
</g>
<g>
	<g>
		<path class="st0" d="M-531.3-157.9h15.8v78.6h-15.8V-157.9z"/>
		<path class="st0" d="M-468.7-157.9h25c9.8,0,24,1,33.4,13.6c5.7,7.2,8.1,15.9,8.1,25.6c0,22.2-11.7,39.4-40.3,39.4h-26.1V-157.9z
			 M-452.9-93.2h11.2c17,0,23.6-11.2,23.6-25.3c0-6.2-1.6-12.8-5.3-17.6c-3.3-4.3-8.6-7.9-18.2-7.9h-11.3V-93.2z"/>
		<path class="st0" d="M-359-157.9h44.1v13.9h-28.3v17.9h27.7v13.9h-27.7v19h28.3v13.9H-359V-157.9z"/>
		<path class="st0" d="M-259.7-79.2H-277l31.9-78.6h13.9l31.1,78.6h-17.3l-5.7-15.4h-31L-259.7-79.2z M-238.8-139.2l-11.2,31.9h22.6
			L-238.8-139.2z"/>
	</g>
	<g>
		<path class="st0" d="M-632.6-116.7c0.3,6.1,5.6,9.2,10.2,9.2c4.1,0,7.1-1.9,8.7-5.1h6c-1.4,3.3-3.6,5.8-6.1,7.5
			c-2.6,1.7-5.6,2.6-8.6,2.6c-9.9,0-16-7.9-16-15.9c0-8.7,6.8-16.1,15.9-16.1c4.3,0,8.3,1.6,11.2,4.4c3.6,3.6,5.1,8.3,4.6,13.4
			H-632.6z M-612.5-121.2c-0.3-4-4.3-8.5-10-8.4c-5.9,0-9.7,4.3-10,8.4H-612.5z"/>
	</g>
	<rect x="-638.5" y="-156" class="st0" width="61.7" height="5.1"/>
	<rect x="-638.5" y="-84.3" class="st0" width="61.7" height="5.1"/>
	<g>
		<path class="st0" d="M-597.1-134.6h5.8v25.9h14.5v5.8h-20.3V-134.6z"/>
	</g>
	<g>
		<path class="st0" d="M-167-85.7h4.6c0.7,0,1.5-0.1,2.1-0.2c0.7-0.1,1.3-0.4,1.8-0.9c0.5-0.4,0.9-1.1,1.2-2c0.3-0.9,0.5-2,0.5-3.4
			v-53c0-1.5-0.2-2.6-0.5-3.5c-0.3-0.9-0.7-1.5-1.2-2c-0.5-0.5-1.1-0.8-1.8-0.9c-0.7-0.2-1.4-0.2-2.1-0.2h-4.6v-5.7h35.1
			c10.3,0,17.8,1.7,22.6,5.2c4.8,3.4,7.2,8.4,7.2,15c0,2.9-0.4,5.4-1.3,7.7c-0.8,2.2-2,4.2-3.4,5.8c-1.4,1.7-3,3.1-4.8,4.2
			c-1.8,1.2-3.6,2.1-5.4,2.8l13,22.3c0.9,1.6,1.8,2.9,2.7,4c0.9,1.1,1.7,2,2.6,2.8c0.9,0.7,1.8,1.3,2.7,1.6c0.9,0.3,1.9,0.5,2.9,0.5
			h0.4v5.8h-3.6c-3.3,0-6.1-0.1-8.5-0.4c-2.4-0.2-4.6-0.7-6.4-1.5s-3.4-1.7-4.7-3c-1.3-1.3-2.6-2.9-3.7-4.9l-12.9-24h-7.2v21.5
			c0,1.4,0.2,2.6,0.5,3.4c0.3,0.9,0.7,1.5,1.2,2c0.5,0.4,1.1,0.7,1.8,0.9c0.7,0.1,1.4,0.2,2.1,0.2h4.7v5.8H-167V-85.7z M-139.7-120
			h6.1c2.5,0,4.6-0.3,6.3-1c1.7-0.7,3-1.7,4-3c1-1.3,1.7-3,2.2-5c0.4-2,0.7-4.3,0.7-7c0-2.8-0.2-5.1-0.7-7c-0.5-1.9-1.3-3.5-2.3-4.7
			c-1.1-1.2-2.4-2.1-4.1-2.7c-1.7-0.5-3.8-0.8-6.2-0.8h-5.9V-120z"/>
		<path class="st0" d="M-57.3-79.9v-5.8h4.6c0.8,0,1.6-0.1,2.2-0.2c0.7-0.2,1.3-0.5,1.8-1s0.9-1.2,1.2-2.1c0.3-0.9,0.4-2.2,0.4-3.7
			v-52c0-1.6-0.1-2.8-0.4-3.7c-0.3-0.9-0.7-1.6-1.2-2.1c-0.5-0.5-1.1-0.8-1.8-1c-0.7-0.2-1.4-0.2-2.2-0.2h-4.6v-5.8h37.6v5.8h-4.6
			c-0.8,0-1.5,0.1-2.2,0.2c-0.7,0.2-1.3,0.5-1.8,1c-0.5,0.5-0.9,1.2-1.2,2.1c-0.3,0.9-0.4,2.2-0.4,3.7v52c0,1.6,0.1,2.8,0.4,3.7
			c0.3,0.9,0.7,1.6,1.2,2.1s1.1,0.8,1.8,1c0.7,0.2,1.4,0.2,2.2,0.2h4.6v5.8H-57.3z"/>
		<path class="st0" d="M95.8-118.9c0,6-0.8,11.4-2.4,16.4c-1.6,4.9-4,9.1-7.1,12.7c-3.1,3.5-7,6.2-11.5,8.1
			c-4.6,1.9-9.8,2.9-15.7,2.9c-6.2,0-11.6-1-16.2-2.9c-4.6-1.9-8.5-4.6-11.5-8.1c-3-3.5-5.3-7.7-6.9-12.7
			c-1.5-4.9-2.3-10.4-2.3-16.5c0-6,0.8-11.5,2.3-16.4c1.5-4.9,3.8-9.1,6.9-12.6s6.9-6.2,11.5-8.1c4.6-1.9,10.1-2.8,16.3-2.8
			c5.9,0,11.1,0.9,15.7,2.8c4.6,1.9,8.4,4.6,11.5,8.1c3.1,3.5,5.5,7.7,7.1,12.6C95-130.4,95.8-124.9,95.8-118.9z M40.4-118.9
			c0,5.2,0.3,9.9,1,13.9c0.7,4.1,1.8,7.5,3.2,10.3c1.5,2.8,3.4,5,5.8,6.5c2.4,1.5,5.2,2.2,8.6,2.2c3.4,0,6.3-0.7,8.6-2.2
			c2.4-1.5,4.3-3.6,5.7-6.5c1.5-2.8,2.5-6.3,3.2-10.3c0.7-4.1,1-8.7,1-13.9c0-5.2-0.3-9.9-1-13.9c-0.7-4.1-1.7-7.5-3.2-10.3
			c-1.5-2.8-3.3-5-5.7-6.4c-2.3-1.5-5.2-2.2-8.6-2.2c-3.4,0-6.3,0.7-8.7,2.2c-2.4,1.5-4.3,3.6-5.8,6.4c-1.5,2.8-2.6,6.3-3.2,10.3
			C40.7-128.7,40.4-124.1,40.4-118.9z"/>
	</g>
</g>
<circle class="st2" cx="40" cy="40" r="31"/>
<path id="XMLID_6_" class="st0" d="M-87.8,29c0,0-1.8,0.8-4.1,1.2c0,0,0,0,0,0c2.7-1.8,3.1-4,3.1-4c-1.8,1.2-3.8,1.6-4.6,1.7
	c-1.3-1.4-3.2-2.3-5.3-2.3c-4,0-7.2,3.2-7.2,7.2c0,0.5,0.1,1,0.1,1.4l-0.1,0l0.2,0.2c-10.2-0.2-15-7.5-15-7.5
	c-3,6.1,2.3,9.6,2.3,9.6c-1.4,0-3.3-0.9-3.3-0.9c0.1,6.1,5.7,7.2,5.7,7.2c-1.1,0.6-3.2,0.1-3.2,0.1c1.7,5,6.7,4.9,6.7,4.9
	c-3.4,3-7.8,3.3-10.4,3.2c3.2,2,6.9,3.2,10.9,3.2c11.3,0,20.4-9.1,20.4-20.4c0-0.2,0-0.4,0-0.6c0-0.2,0-0.4,0-0.6c0,0,0,0,0,0
	C-90.9,32.3-89.3,31.2-87.8,29z"/>
<g id="XMLID_16_">
	<path id="XMLID_17_" class="st0" d="M45.8,29.1l2.7,0V24c-2.2-0.3-5.1-0.3-5.1-0.3c-7.1,0.5-6.9,7.6-6.9,7.6v4.2h-4.9v6h4.9v14.8h6
		V41.5h4.9l1-6h-5.8v-3.5C42.5,28.9,45.8,29.1,45.8,29.1z"/>
</g>
<circle class="st2" cx="-105.3" cy="40" r="31"/>
</svg>
