<?xml version="1.0" encoding="utf-8"?>
<!-- Generator: Adobe Illustrator 21.0.2, SVG Export Plug-In . SVG Version: 6.00 Build 0)  -->
<svg version="1.1" id="Capa_2" xmlns="http://www.w3.org/2000/svg" xmlns:xlink="http://www.w3.org/1999/xlink" x="0px" y="0px"
	 viewBox="0 0 790 111" style="enable-background:new 0 0 790 111;" xml:space="preserve">
<style type="text/css">
	.st0{fill:#0033CC;}
	.st1{fill:#FFFFFF;}
	.st2{fill:#CCCCCC;}
</style>
<rect x="-2517" y="-458" class="st0" width="1920" height="1080"/>
<g>
	<g>
		<g>
			<path class="st1" d="M-1821.7,13.7h16.2v80.2h-16.2V13.7z"/>
			<path class="st1" d="M-1757.9,13.7h25.5c10,0,24.5,1,34,13.9c5.9,7.4,8.2,16.3,8.2,26.1c0,22.7-11.9,40.2-41.1,40.2h-26.7V13.7z
				 M-1741.7,79.7h11.4c17.3,0,24.1-11.4,24.1-25.8c0-6.3-1.6-13-5.4-18c-3.4-4.3-8.8-8-18.5-8h-11.5V79.7z"/>
			<path class="st1" d="M-1645.9,13.7h45v14.2h-28.8v18.2h28.3v14.2h-28.3v19.4h28.8v14.2h-45V13.7z"/>
			<path class="st1" d="M-1544.7,93.9h-17.6l32.5-80.2h14.2l31.8,80.2h-17.7l-5.9-15.7h-31.7L-1544.7,93.9z M-1523.3,32.8
				l-11.4,32.5h23.1L-1523.3,32.8z"/>
		</g>
		<g>
			<path class="st1" d="M-1925.1,55.7c0.3,6.2,5.7,9.4,10.4,9.4c4.1,0,7.2-2,8.9-5.2h6.1c-1.5,3.4-3.6,6-6.2,7.7
				c-2.6,1.8-5.7,2.6-8.8,2.6c-10.1,0-16.3-8.1-16.3-16.3c0-8.8,6.9-16.4,16.3-16.4c4.4,0,8.4,1.6,11.4,4.5
				c3.6,3.7,5.2,8.5,4.6,13.7H-1925.1z M-1904.6,51.1c-0.3-4.1-4.4-8.7-10.2-8.6c-6,0-9.9,4.4-10.2,8.6H-1904.6z"/>
		</g>
		<rect x="-1931.1" y="15.6" class="st1" width="62.9" height="5.2"/>
		<rect x="-1931.1" y="88.7" class="st1" width="62.9" height="5.2"/>
		<g>
			<path class="st1" d="M-1888.9,37.4h5.9v26.4h14.8v5.9h-20.7V37.4z"/>
		</g>
		<g>
			<path class="st1" d="M-1450.1,87.3h4.7c0.8,0,1.5-0.1,2.2-0.2c0.7-0.1,1.3-0.4,1.8-0.9c0.5-0.5,0.9-1.1,1.2-2
				c0.3-0.9,0.5-2.1,0.5-3.5V26.6c0-1.5-0.2-2.7-0.5-3.6c-0.3-0.9-0.7-1.6-1.2-2c-0.5-0.5-1.1-0.8-1.8-0.9c-0.7-0.2-1.4-0.2-2.2-0.2
				h-4.7V14h35.8c10.5,0,18.2,1.8,23.1,5.3c4.9,3.5,7.3,8.6,7.3,15.3c0,2.9-0.4,5.5-1.3,7.8c-0.9,2.3-2,4.3-3.4,6
				c-1.4,1.7-3,3.1-4.9,4.3c-1.8,1.2-3.7,2.1-5.5,2.9l13.2,22.8c0.9,1.6,1.9,3,2.7,4.1c0.9,1.1,1.8,2.1,2.7,2.8
				c0.9,0.7,1.8,1.3,2.7,1.6c0.9,0.3,1.9,0.5,3,0.5h0.4v5.9h-3.6c-3.3,0-6.2-0.1-8.7-0.4c-2.5-0.3-4.6-0.8-6.5-1.5s-3.5-1.8-4.8-3.1
				c-1.4-1.3-2.6-3-3.8-5l-13.2-24.5h-7.4v21.9c0,1.4,0.2,2.6,0.5,3.5c0.3,0.9,0.7,1.6,1.2,2c0.5,0.5,1.1,0.8,1.8,0.9
				c0.7,0.1,1.4,0.2,2.2,0.2h4.8v5.9h-38.3V87.3z M-1422.2,52.4h6.2c2.6,0,4.7-0.3,6.4-1c1.7-0.7,3.1-1.7,4.1-3.1
				c1-1.4,1.8-3.1,2.2-5.1c0.5-2,0.7-4.4,0.7-7.1c0-2.8-0.3-5.2-0.8-7.2s-1.3-3.6-2.4-4.8c-1.1-1.2-2.5-2.2-4.2-2.7
				c-1.7-0.6-3.8-0.8-6.3-0.8h-6V52.4z"/>
			<path class="st1" d="M-1338.1,93.3v-5.9h4.7c0.8,0,1.6-0.1,2.3-0.2c0.7-0.2,1.3-0.5,1.8-1s0.9-1.2,1.2-2.2
				c0.3-0.9,0.4-2.2,0.4-3.8v-53c0-1.6-0.1-2.9-0.4-3.8c-0.3-0.9-0.7-1.7-1.2-2.2c-0.5-0.5-1.1-0.8-1.8-1c-0.7-0.2-1.4-0.2-2.3-0.2
				h-4.7V14h38.3v5.9h-4.7c-0.8,0-1.5,0.1-2.3,0.2c-0.7,0.2-1.3,0.5-1.8,1c-0.5,0.5-0.9,1.2-1.2,2.2c-0.3,0.9-0.4,2.2-0.4,3.8v53
				c0,1.6,0.1,2.9,0.4,3.8c0.3,0.9,0.7,1.7,1.2,2.2c0.5,0.5,1.1,0.8,1.8,1c0.7,0.2,1.5,0.2,2.3,0.2h4.7v5.9H-1338.1z"/>
			<path class="st1" d="M-1181.9,53.5c0,6.1-0.8,11.7-2.5,16.7c-1.6,5-4.1,9.3-7.3,12.9c-3.2,3.6-7.1,6.3-11.8,8.3
				c-4.6,2-10,2.9-16,2.9c-6.3,0-11.9-1-16.6-2.9c-4.7-2-8.6-4.7-11.7-8.3c-3.1-3.6-5.4-7.9-7-12.9c-1.6-5-2.3-10.6-2.3-16.8
				c0-6.1,0.8-11.7,2.3-16.7c1.6-5,3.9-9.3,7-12.8c3.1-3.5,7.1-6.3,11.8-8.2c4.7-1.9,10.3-2.9,16.6-2.9c6,0,11.3,1,16,2.9
				c4.6,1.9,8.6,4.7,11.7,8.2c3.2,3.6,5.6,7.8,7.2,12.9C-1182.8,41.7-1181.9,47.3-1181.9,53.5z M-1238.4,53.5c0,5.3,0.3,10.1,1,14.2
				c0.7,4.2,1.8,7.7,3.3,10.5c1.5,2.9,3.5,5.1,5.9,6.6c2.4,1.5,5.3,2.3,8.8,2.3c3.5,0,6.4-0.8,8.8-2.3c2.4-1.5,4.3-3.7,5.8-6.6
				c1.5-2.9,2.6-6.4,3.2-10.5c0.7-4.2,1-8.9,1-14.2s-0.3-10.1-1-14.2c-0.7-4.2-1.7-7.7-3.2-10.5c-1.5-2.9-3.4-5.1-5.8-6.6
				c-2.4-1.5-5.3-2.3-8.7-2.3c-3.5,0-6.4,0.8-8.8,2.3c-2.4,1.5-4.4,3.7-5.9,6.6c-1.5,2.9-2.6,6.4-3.3,10.5
				C-1238.1,43.4-1238.4,48.2-1238.4,53.5z"/>
		</g>
	</g>
	<g>
		<path class="st1" d="M-1554.7,125.1c3.2,0,4.5,0.5,5.7,1.3c1.4,1.1,2.2,3,2.2,4.9c0,1.9-0.8,3.9-2,4.9c-1.3,1.1-2.6,1.5-5.4,1.5
			h-2.4v6.6h-3.9v-19.2H-1554.7z M-1556.6,134.3h2.3c0.9,0,1.7-0.1,2.5-0.5c0.7-0.4,1.3-1.2,1.3-2.4c0-1.2-0.6-2-1.3-2.4
			c-0.8-0.4-1.7-0.5-2.6-0.5h-2.1V134.3z"/>
		<path class="st1" d="M-1541.4,137.2c0-3.6,2.7-7.5,7.6-7.5s7.6,3.9,7.6,7.5c0,3.7-2.7,7.6-7.6,7.6S-1541.4,140.9-1541.4,137.2
			L-1541.4,137.2z M-1538,137.2c0,2.5,1.9,4.3,4.2,4.3s4.2-1.8,4.2-4.4c0-2.5-1.9-4.4-4.2-4.4S-1538,134.7-1538,137.2L-1538,137.2z"
			/>
		<path class="st1" d="M-1521.1,130.1h3.5l2.8,9.9l2.7-9.5h2.9l2.8,9.5l2.8-9.9h3.5l-4.6,14.3h-3.2l-2.8-9.6l-2.7,9.6h-3.2
			L-1521.1,130.1z"/>
		<path class="st1" d="M-1491.4,138.3c0.2,2.3,2.2,3.6,4.1,3.5c1.7,0,2.8-0.8,3.4-1.9h3.5c-0.7,1.6-1.7,2.8-2.9,3.6
			c-1.2,0.8-2.6,1.2-4.1,1.2c-4.4,0-7.5-3.6-7.5-7.5c0-4.1,3.2-7.6,7.5-7.6c2.1,0,4,0.8,5.3,2.2c1.7,1.8,2.4,4,2.1,6.5H-1491.4z
			 M-1483.3,135.7c-0.1-1.4-1.6-3.2-4.1-3.2c-2.5,0-3.9,1.8-4,3.2H-1483.3z"/>
		<path class="st1" d="M-1472.7,130.1h3.2v1.9c0.6-1.3,1.8-2.3,3.9-2.3v3.4h-0.2c-2.4,0-3.6,1.1-3.6,3.6v7.7h-3.4V130.1z"/>
		<path class="st1" d="M-1457.2,138.3c0.2,2.3,2.2,3.6,4.1,3.5c1.7,0,2.8-0.8,3.4-1.9h3.5c-0.7,1.6-1.7,2.8-2.9,3.6
			c-1.2,0.8-2.6,1.2-4.1,1.2c-4.4,0-7.5-3.6-7.5-7.5c0-4.1,3.2-7.6,7.5-7.6c2.1,0,4,0.8,5.3,2.2c1.7,1.8,2.4,4,2.1,6.5H-1457.2z
			 M-1449,135.7c-0.1-1.4-1.6-3.2-4.1-3.2c-2.5,0-3.9,1.8-4,3.2H-1449z"/>
		<path class="st1" d="M-1423.8,144.3h-3.2v-2.1c-0.6,1.1-2,2.5-4.9,2.5c-4.4,0-7.2-3.4-7.2-7.6c0-4.6,3.3-7.6,7.2-7.6
			c2.7,0,4.3,1.5,4.8,2.3v-2.1v-4.7h3.4V144.3z M-1435.8,137.2c0,2.4,1.7,4.4,4.4,4.4c1.2,0,2.4-0.5,3.2-1.3
			c0.8-0.8,1.3-1.9,1.2-3.2c0-1.2-0.5-2.3-1.3-3.1c-0.8-0.8-1.9-1.2-3.1-1.2C-1434.2,132.8-1435.8,134.9-1435.8,137.2L-1435.8,137.2
			z"/>
		<path class="st1" d="M-1403.4,125.1h3.4v5v1.7c1.4-1.7,3.5-2.2,4.8-2.2c3.4,0,7.1,2.5,7.1,7.5c0,4.8-3.4,7.6-7.3,7.6
			c-2.2,0-4-1.1-4.7-2.5v2.1h-3.3V125.1z M-1391.5,137.2c0-2.3-1.8-4.4-4.3-4.4c-2.7,0-4.3,2.1-4.3,4.4c0,2.4,1.7,4.4,4.2,4.4
			C-1393.1,141.6-1391.5,139.4-1391.5,137.2L-1391.5,137.2z"/>
		<path class="st1" d="M-1377.6,143.8l-5.4-13.7h3.6l3.5,9.5l3.4-9.5h3.6l-7.5,19.3h-3.6L-1377.6,143.8z"/>
	</g>
	<g>
		<g>
			<g>
				<path class="st1" d="M-1327.5,112.5c6,0,8.2,0.9,9.9,2.4c2.5,2.1,3.8,5.3,3.8,8.6c0,3.3-1.4,6.7-3.4,8.5
					c-2.2,1.9-4.4,2.8-9.4,2.8h-3.2v10.1h-8.2v-32.3H-1327.5z M-1329.9,127.4h3c0.8,0,2.1,0,3.2-0.5c1.1-0.5,2-1.5,2-3.4
					c0-1.9-0.9-2.8-2.1-3.3c-1.1-0.5-2.5-0.5-3.4-0.5h-2.7V127.4z"/>
			</g>
			<g>
				<path class="st1" d="M-1267.1,112.5c6,0,8.2,0.9,9.9,2.4c2.5,2.1,3.8,5.3,3.8,8.6c0,3.3-1.4,6.7-3.4,8.5
					c-2.2,1.9-4.4,2.8-9.4,2.8h-3.2v10.1h-8.2v-32.3H-1267.1z M-1269.5,127.4h3c0.8,0,2.1,0,3.2-0.5c1.1-0.5,2-1.5,2-3.4
					c0-1.9-0.9-2.8-2.1-3.3c-1.1-0.5-2.5-0.5-3.4-0.5h-2.7V127.4z"/>
			</g>
			<path class="st1" d="M-1296.3,111.8c-9.2,0-16.7,7.5-16.7,16.7c0,9.2,7.5,16.7,16.7,16.7c9.2,0,16.7-7.5,16.7-16.7
				C-1279.6,119.3-1287.1,111.8-1296.3,111.8z M-1295,141.4c0,0.3-0.2,0.5-0.5,0.5h-2.1c-0.3,0-0.5-0.2-0.5-0.5V141
				c0-0.3,0.2-0.5,0.5-0.5h2.1c0.3,0,0.5,0.2,0.5,0.5V141.4z M-1293.3,139.4c0,0.3-0.2,0.5-0.5,0.5h-5.5c-0.3,0-0.5-0.2-0.5-0.5V139
				c0-0.3,0.2-0.5,0.5-0.5h5.5c0.3,0,0.5,0.2,0.5,0.5V139.4z M-1293.3,137.3c0,0.3-0.2,0.5-0.5,0.5h-5.5c-0.3,0-0.5-0.2-0.5-0.5
				v-0.4c0-0.3,0.2-0.5,0.5-0.5h5.5c0.3,0,0.5,0.2,0.5,0.5V137.3z M-1296.3,135.7c-3.9,0-7.2-3.2-7.2-7.2c0-4,3.2-7.2,7.2-7.2
				c4,0,7.2,3.2,7.2,7.2C-1289.2,132.5-1292.4,135.7-1296.3,135.7z"/>
		</g>
		<g>
			<g>
				<path class="st1" d="M-1243,139.8c0,1.5-0.1,2.7-1.1,3.8s-2.5,1.8-4,1.8c-3,0-5.5-2.5-5.5-5.5c0-3.1,2.5-5.6,5.6-5.6
					c1.9,0,3.4,0.8,4.6,2.3l-0.9,0.8c-0.9-1.3-2.1-2-3.7-2c-2.5,0-4.4,2.1-4.4,4.5c0,1.1,0.5,2.2,1.3,3c0.8,0.8,1.9,1.4,3.1,1.4
					c1.9,0,3.8-1.4,3.8-3.4h-3.2v-1.1H-1243z"/>
				<path class="st1" d="M-1234.2,145.2h-1.2v-10.8h1.6c2,0,3.9,0.5,3.9,3c0,1.7-1,2.8-2.7,3l3.4,4.8h-1.5l-3.3-4.7h-0.3V145.2z
					 M-1234.2,139.5h0.4c1.4,0,2.7-0.3,2.7-1.9c0-1.8-1.3-1.9-2.7-1.9h-0.4V139.5z"/>
				<path class="st1" d="M-1211.1,139.9c0,3.1-2.5,5.5-5.6,5.5s-5.6-2.5-5.6-5.5c0-3.1,2.5-5.6,5.6-5.6S-1211.1,136.8-1211.1,139.9z
					 M-1221.2,139.9c0,2.4,2,4.5,4.4,4.5c2.4,0,4.4-2,4.4-4.5c0-2.4-1.9-4.5-4.4-4.5C-1219.2,135.4-1221.2,137.4-1221.2,139.9z"/>
				<path class="st1" d="M-1202.5,140.9c0,0.8,0,1.7,0.5,2.4c0.5,0.7,1.4,1,2.2,1c0.8,0,1.6-0.4,2.1-1c0.6-0.7,0.5-1.6,0.5-2.5v-6.4
					h1.2v6.7c0,1.2-0.1,2.1-0.9,3c-0.7,0.8-1.8,1.2-2.9,1.2c-1,0-2.1-0.4-2.8-1.1c-0.9-0.9-1.1-1.9-1.1-3.1v-6.7h1.2V140.9z"/>
				<path class="st1" d="M-1186.8,145.2h-1.2v-10.8h1.8c0.9,0,1.9,0,2.7,0.6c0.8,0.6,1.2,1.5,1.2,2.5c0,0.9-0.4,1.8-1,2.3
					c-0.7,0.6-1.7,0.7-2.6,0.7h-0.9V145.2z M-1186.8,139.4h0.8c1.3,0,2.5-0.4,2.5-1.9c0-1.8-1.4-1.9-2.8-1.9h-0.4V139.4z"/>
			</g>
		</g>
	</g>
</g>
<text transform="matrix(1 0 0 1 -1176.9287 93.2505)" class="st1" style="font-family:'NotoSerif'; font-size:17.1588px;">®</text>
<g>
	<g>
		<g>
			<path class="st0" d="M129.8,15.7h16.2v80.2h-16.2V15.7z"/>
			<path class="st0" d="M193.6,15.7h25.5c10,0,24.5,1,34,13.9c5.9,7.4,8.2,16.3,8.2,26.1c0,22.7-11.9,40.2-41.1,40.2h-26.7V15.7z
				 M209.8,81.7h11.4c17.3,0,24.1-11.4,24.1-25.8c0-6.3-1.6-13-5.4-18c-3.4-4.3-8.8-8-18.5-8h-11.5V81.7z"/>
			<path class="st0" d="M305.6,15.7h45v14.2h-28.8v18.2H350v14.2h-28.3v19.4h28.8v14.2h-45V15.7z"/>
			<path class="st0" d="M406.8,95.9h-17.6l32.5-80.2H436l31.8,80.2h-17.7l-5.9-15.7h-31.7L406.8,95.9z M428.2,34.7l-11.4,32.5h23.1
				L428.2,34.7z"/>
		</g>
		<g>
			<path class="st0" d="M26.4,57.7c0.3,6.2,5.7,9.4,10.4,9.4c4.1,0,7.2-2,8.9-5.2h6.1c-1.5,3.4-3.6,6-6.2,7.7
				c-2.6,1.8-5.7,2.6-8.8,2.6c-10.1,0-16.3-8.1-16.3-16.3c0-8.8,6.9-16.4,16.3-16.4c4.4,0,8.4,1.6,11.4,4.5
				c3.6,3.7,5.2,8.5,4.6,13.7H26.4z M46.9,53.1c-0.3-4.1-4.4-8.7-10.2-8.6c-6,0-9.9,4.4-10.2,8.6H46.9z"/>
		</g>
		<rect x="20.4" y="17.6" class="st0" width="62.9" height="5.2"/>
		<rect x="20.4" y="90.7" class="st0" width="62.9" height="5.2"/>
		<g>
			<path class="st0" d="M62.6,39.4h5.9v26.4h14.8v5.9H62.6V39.4z"/>
		</g>
		<g>
			<path class="st0" d="M501.4,89.3h4.7c0.8,0,1.5-0.1,2.2-0.2c0.7-0.1,1.3-0.4,1.8-0.9c0.5-0.5,0.9-1.1,1.2-2
				c0.3-0.9,0.5-2.1,0.5-3.5V28.6c0-1.5-0.2-2.7-0.5-3.6c-0.3-0.9-0.7-1.6-1.2-2c-0.5-0.5-1.1-0.8-1.8-0.9c-0.7-0.2-1.4-0.2-2.2-0.2
				h-4.7v-5.9h35.8c10.5,0,18.2,1.8,23.1,5.3c4.9,3.5,7.3,8.6,7.3,15.3c0,2.9-0.4,5.5-1.3,7.8c-0.9,2.3-2,4.3-3.4,6
				c-1.4,1.7-3,3.1-4.9,4.3c-1.8,1.2-3.7,2.1-5.5,2.9l13.2,22.8c0.9,1.6,1.9,3,2.7,4.1c0.9,1.1,1.8,2.1,2.7,2.8
				c0.9,0.7,1.8,1.3,2.7,1.6c0.9,0.3,1.9,0.5,3,0.5h0.4v5.9h-3.6c-3.3,0-6.2-0.1-8.7-0.4c-2.5-0.3-4.6-0.8-6.5-1.5s-3.5-1.8-4.8-3.1
				c-1.4-1.3-2.6-3-3.8-5l-13.2-24.5h-7.4v21.9c0,1.4,0.2,2.6,0.5,3.5c0.3,0.9,0.7,1.6,1.2,2c0.5,0.5,1.1,0.8,1.8,0.9
				c0.7,0.1,1.4,0.2,2.2,0.2h4.8v5.9h-38.3V89.3z M529.3,54.3h6.2c2.6,0,4.7-0.3,6.4-1c1.7-0.7,3.1-1.7,4.1-3.1
				c1-1.4,1.8-3.1,2.2-5.1c0.5-2,0.7-4.4,0.7-7.1c0-2.8-0.3-5.2-0.8-7.2c-0.5-2-1.3-3.6-2.4-4.8c-1.1-1.2-2.5-2.2-4.2-2.7
				c-1.7-0.6-3.8-0.8-6.3-0.8h-6V54.3z"/>
			<path class="st0" d="M613.4,95.2v-5.9h4.7c0.8,0,1.6-0.1,2.3-0.2c0.7-0.2,1.3-0.5,1.8-1c0.5-0.5,0.9-1.2,1.2-2.2
				c0.3-0.9,0.4-2.2,0.4-3.8v-53c0-1.6-0.1-2.9-0.4-3.8c-0.3-0.9-0.7-1.7-1.2-2.2c-0.5-0.5-1.1-0.8-1.8-1c-0.7-0.2-1.4-0.2-2.3-0.2
				h-4.7v-5.9h38.3v5.9h-4.7c-0.8,0-1.5,0.1-2.3,0.2c-0.7,0.2-1.3,0.5-1.8,1c-0.5,0.5-0.9,1.2-1.2,2.2c-0.3,0.9-0.4,2.2-0.4,3.8v53
				c0,1.6,0.1,2.9,0.4,3.8c0.3,0.9,0.7,1.7,1.2,2.2c0.5,0.5,1.1,0.8,1.8,1c0.7,0.2,1.5,0.2,2.3,0.2h4.7v5.9H613.4z"/>
			<path class="st0" d="M769.6,55.5c0,6.1-0.8,11.7-2.5,16.7c-1.6,5-4.1,9.3-7.3,12.9c-3.2,3.6-7.1,6.3-11.8,8.3
				c-4.6,2-10,2.9-16,2.9c-6.3,0-11.9-1-16.6-2.9c-4.7-2-8.6-4.7-11.7-8.3c-3.1-3.6-5.4-7.9-7-12.9c-1.6-5-2.3-10.6-2.3-16.8
				c0-6.1,0.8-11.7,2.3-16.7c1.6-5,3.9-9.3,7-12.8s7.1-6.3,11.8-8.2c4.7-1.9,10.3-2.9,16.6-2.9c6,0,11.3,1,16,2.9
				c4.6,1.9,8.6,4.7,11.7,8.2c3.2,3.6,5.6,7.8,7.2,12.9C768.7,43.7,769.6,49.3,769.6,55.5z M713.1,55.5c0,5.3,0.3,10.1,1,14.2
				c0.7,4.2,1.8,7.7,3.3,10.5c1.5,2.9,3.5,5.1,5.9,6.6c2.4,1.5,5.3,2.3,8.8,2.3c3.5,0,6.4-0.8,8.8-2.3c2.4-1.5,4.3-3.7,5.8-6.6
				c1.5-2.9,2.6-6.4,3.2-10.5c0.7-4.2,1-8.9,1-14.2s-0.3-10.1-1-14.2c-0.7-4.2-1.7-7.7-3.2-10.5c-1.5-2.9-3.4-5.1-5.8-6.6
				c-2.4-1.5-5.3-2.3-8.7-2.3c-3.5,0-6.4,0.8-8.8,2.3c-2.4,1.5-4.4,3.7-5.9,6.6c-1.5,2.9-2.6,6.4-3.3,10.5
				C713.4,45.4,713.1,50.2,713.1,55.5z"/>
		</g>
	</g>
</g>
<g>
	<path class="st0" d="M777.7,88.5c0,2.6-2,4.7-4.7,4.7c-2.6,0-4.7-2-4.7-4.7c0-2.6,2.1-4.6,4.7-4.6
		C775.7,83.9,777.7,85.9,777.7,88.5z M769.4,88.5c0,2,1.5,3.7,3.6,3.7c2,0,3.5-1.6,3.5-3.6c0-2-1.5-3.7-3.5-3.7
		C771,84.8,769.4,86.4,769.4,88.5z M772.3,90.9h-1.1v-4.6c0.4-0.1,1-0.1,1.8-0.1c0.9,0,1.3,0.1,1.6,0.3c0.3,0.2,0.4,0.6,0.4,1
		c0,0.5-0.4,0.9-1,1.1v0.1c0.4,0.2,0.7,0.5,0.8,1.1c0.1,0.7,0.2,1,0.3,1.1h-1.2c-0.1-0.2-0.2-0.6-0.4-1.1c-0.1-0.5-0.4-0.7-1-0.7
		h-0.5V90.9z M772.3,88.3h0.5c0.6,0,1.1-0.2,1.1-0.7c0-0.4-0.3-0.7-1-0.7c-0.3,0-0.5,0-0.6,0.1V88.3z"/>
</g>
<g>
	<g>
		<path class="st2" d="M203.1,143.5c3.2,0,4.5,0.5,5.7,1.3c1.4,1.1,2.2,3,2.2,4.9c0,1.9-0.8,3.9-2,4.9c-1.3,1.1-2.6,1.5-5.4,1.5
			h-2.4v6.6h-3.9v-19.2H203.1z M201.2,152.7h2.3c0.9,0,1.7-0.1,2.5-0.5c0.7-0.4,1.3-1.2,1.3-2.4c0-1.2-0.6-2-1.3-2.4
			c-0.8-0.4-1.7-0.5-2.6-0.5h-2.1V152.7z"/>
		<path class="st2" d="M216.3,155.6c0-3.6,2.7-7.5,7.6-7.5s7.6,3.9,7.6,7.5c0,3.7-2.7,7.6-7.6,7.6S216.3,159.3,216.3,155.6
			L216.3,155.6z M219.7,155.6c0,2.5,1.9,4.3,4.2,4.3s4.2-1.8,4.2-4.4c0-2.5-1.9-4.4-4.2-4.4S219.7,153.1,219.7,155.6L219.7,155.6z"
			/>
		<path class="st2" d="M236.7,148.5h3.5l2.8,9.9l2.7-9.5h2.9l2.8,9.5l2.8-9.9h3.5l-4.6,14.3H250l-2.8-9.6l-2.7,9.6h-3.2L236.7,148.5
			z"/>
		<path class="st2" d="M266.3,156.7c0.2,2.3,2.2,3.6,4.1,3.5c1.7,0,2.8-0.8,3.4-1.9h3.5c-0.7,1.6-1.7,2.8-2.9,3.6
			c-1.2,0.8-2.6,1.2-4.1,1.2c-4.4,0-7.5-3.6-7.5-7.5c0-4.1,3.2-7.6,7.5-7.6c2.1,0,4,0.8,5.3,2.2c1.7,1.8,2.4,4,2.1,6.5H266.3z
			 M274.5,154.1c-0.1-1.4-1.6-3.2-4.1-3.2c-2.5,0-3.9,1.8-4,3.2H274.5z"/>
		<path class="st2" d="M285,148.5h3.2v1.9c0.6-1.3,1.8-2.3,3.9-2.3v3.4H292c-2.4,0-3.6,1.1-3.6,3.6v7.7H285V148.5z"/>
		<path class="st2" d="M300.6,156.7c0.2,2.3,2.2,3.6,4.1,3.5c1.7,0,2.8-0.8,3.4-1.9h3.5c-0.7,1.6-1.7,2.8-2.9,3.6
			c-1.2,0.8-2.6,1.2-4.1,1.2c-4.4,0-7.5-3.6-7.5-7.5c0-4.1,3.2-7.6,7.5-7.6c2.1,0,4,0.8,5.3,2.2c1.7,1.8,2.4,4,2.1,6.5H300.6z
			 M308.8,154.1c-0.1-1.4-1.6-3.2-4.1-3.2c-2.5,0-3.9,1.8-4,3.2H308.8z"/>
		<path class="st2" d="M333.9,162.7h-3.2v-2.1c-0.6,1.1-2,2.5-4.9,2.5c-4.4,0-7.2-3.4-7.2-7.6c0-4.6,3.3-7.6,7.2-7.6
			c2.7,0,4.3,1.5,4.8,2.3v-2.1v-4.7h3.4V162.7z M322,155.6c0,2.4,1.7,4.4,4.4,4.4c1.2,0,2.4-0.5,3.2-1.3c0.8-0.8,1.3-1.9,1.2-3.2
			c0-1.2-0.5-2.3-1.3-3.1c-0.8-0.8-1.9-1.2-3.1-1.2C323.6,151.2,322,153.3,322,155.6L322,155.6z"/>
		<path class="st2" d="M354.4,143.5h3.4v5v1.7c1.4-1.7,3.5-2.2,4.8-2.2c3.4,0,7.1,2.5,7.1,7.5c0,4.8-3.4,7.6-7.3,7.6
			c-2.2,0-4-1.1-4.7-2.5v2.1h-3.3V143.5z M366.3,155.6c0-2.3-1.8-4.4-4.3-4.4c-2.7,0-4.3,2.1-4.3,4.4c0,2.4,1.7,4.4,4.2,4.4
			C364.7,160,366.3,157.8,366.3,155.6L366.3,155.6z"/>
		<path class="st2" d="M380.2,162.2l-5.4-13.7h3.6l3.5,9.5l3.4-9.5h3.6l-7.5,19.3h-3.6L380.2,162.2z"/>
	</g>
	<g>
		<g>
			<g>
				<path class="st2" d="M430.2,130.9c6,0,8.2,0.9,9.9,2.4c2.5,2.1,3.8,5.3,3.8,8.6c0,3.3-1.4,6.7-3.4,8.5c-2.2,1.9-4.4,2.8-9.4,2.8
					h-3.2v10.1h-8.2v-32.3H430.2z M427.9,145.8h3c0.8,0,2.1,0,3.2-0.5c1.1-0.5,2-1.5,2-3.4c0-1.9-0.9-2.8-2.1-3.3
					c-1.1-0.5-2.5-0.5-3.4-0.5h-2.7V145.8z"/>
			</g>
			<g>
				<path class="st2" d="M490.6,130.9c6,0,8.2,0.9,9.9,2.4c2.5,2.1,3.8,5.3,3.8,8.6c0,3.3-1.4,6.7-3.4,8.5c-2.2,1.9-4.4,2.8-9.4,2.8
					h-3.2v10.1h-8.2v-32.3H490.6z M488.3,145.8h3c0.8,0,2.1,0,3.2-0.5c1.1-0.5,2-1.5,2-3.4c0-1.9-0.9-2.8-2.1-3.3
					c-1.1-0.5-2.5-0.5-3.4-0.5h-2.7V145.8z"/>
			</g>
			<path class="st2" d="M461.4,130.2c-9.2,0-16.7,7.5-16.7,16.7c0,9.2,7.5,16.7,16.7,16.7c9.2,0,16.7-7.5,16.7-16.7
				C478.1,137.7,470.7,130.2,461.4,130.2z M462.8,159.8c0,0.3-0.2,0.5-0.5,0.5h-2.1c-0.3,0-0.5-0.2-0.5-0.5v-0.4
				c0-0.3,0.2-0.5,0.5-0.5h2.1c0.3,0,0.5,0.2,0.5,0.5V159.8z M464.5,157.8c0,0.3-0.2,0.5-0.5,0.5h-5.5c-0.3,0-0.5-0.2-0.5-0.5v-0.4
				c0-0.3,0.2-0.5,0.5-0.5h5.5c0.3,0,0.5,0.2,0.5,0.5V157.8z M464.5,155.7c0,0.3-0.2,0.5-0.5,0.5h-5.5c-0.3,0-0.5-0.2-0.5-0.5v-0.4
				c0-0.3,0.2-0.5,0.5-0.5h5.5c0.3,0,0.5,0.2,0.5,0.5V155.7z M461.4,154.1c-3.9,0-7.2-3.2-7.2-7.2c0-4,3.2-7.2,7.2-7.2
				c4,0,7.2,3.2,7.2,7.2C468.6,150.9,465.4,154.1,461.4,154.1z"/>
		</g>
		<g>
			<g>
				<path class="st2" d="M514.8,158.2c0,1.5-0.1,2.7-1.1,3.8s-2.5,1.8-4,1.8c-3,0-5.5-2.5-5.5-5.5c0-3.1,2.5-5.6,5.6-5.6
					c1.9,0,3.4,0.8,4.6,2.3l-0.9,0.8c-0.9-1.3-2.1-2-3.7-2c-2.5,0-4.4,2.1-4.4,4.5c0,1.1,0.5,2.2,1.3,3c0.8,0.8,1.9,1.4,3.1,1.4
					c1.9,0,3.8-1.4,3.8-3.4h-3.2v-1.1H514.8z"/>
				<path class="st2" d="M523.6,163.6h-1.2v-10.8h1.6c2,0,3.9,0.5,3.9,3c0,1.7-1,2.8-2.7,3l3.4,4.8h-1.5l-3.3-4.7h-0.3V163.6z
					 M523.6,157.9h0.4c1.4,0,2.7-0.3,2.7-1.9c0-1.8-1.3-1.9-2.7-1.9h-0.4V157.9z"/>
				<path class="st2" d="M546.6,158.3c0,3.1-2.5,5.5-5.6,5.5s-5.6-2.5-5.6-5.5c0-3.1,2.5-5.6,5.6-5.6S546.6,155.2,546.6,158.3z
					 M536.6,158.3c0,2.4,2,4.5,4.4,4.5c2.4,0,4.4-2,4.4-4.5c0-2.4-1.9-4.5-4.4-4.5C538.6,153.8,536.6,155.8,536.6,158.3z"/>
				<path class="st2" d="M555.3,159.3c0,0.8,0,1.7,0.5,2.4c0.5,0.7,1.4,1,2.2,1c0.8,0,1.6-0.4,2.1-1c0.6-0.7,0.5-1.6,0.5-2.5v-6.4
					h1.2v6.7c0,1.2-0.1,2.1-0.9,3c-0.7,0.8-1.8,1.2-2.9,1.2c-1,0-2.1-0.4-2.8-1.1c-0.9-0.9-1.1-1.9-1.1-3.1v-6.7h1.2V159.3z"/>
				<path class="st2" d="M571,163.6h-1.2v-10.8h1.8c0.9,0,1.9,0,2.7,0.6c0.8,0.6,1.2,1.5,1.2,2.5c0,0.9-0.4,1.8-1,2.3
					c-0.7,0.6-1.7,0.7-2.6,0.7H571V163.6z M571,157.8h0.8c1.3,0,2.5-0.4,2.5-1.9c0-1.8-1.4-1.9-2.8-1.9H571V157.8z"/>
			</g>
		</g>
	</g>
</g>
</svg>
